<svg width="58" height="58" viewBox="0 0 58 58" fill="none" xmlns="http://www.w3.org/2000/svg">
<mask id="path-1-inside-1_25_445" fill="white">
<path d="M1.31271e-09 39.2708V42.8915C-9.06858e-06 43.1301 0.0469819 43.3663 0.138289 43.5868C0.229596 43.8072 0.363432 44.0075 0.532152 44.1762C0.700872 44.3449 0.901172 44.4787 1.12161 44.57C1.34206 44.6613 1.57832 44.7083 1.81692 44.7083H10.9712L7.60931 53.9451C6.34168 57.7232 11.8299 59.7205 13.2867 56.0114L14.3221 53.1669H43.6781L44.7133 56.0114C46.1706 59.7211 51.6595 57.7222 50.3907 53.9451L47.0288 44.7084L40.5992 44.7083L42.3585 49.5419H15.6412L17.4006 44.7083H56.1832C56.4218 44.7083 56.6581 44.6613 56.8785 44.57C57.0989 44.4787 57.2992 44.3449 57.4679 44.1762C57.6366 44.0075 57.7704 43.8072 57.8617 43.5867C57.953 43.3663 58 43.1301 58 42.8915V39.2708H1.31271e-09Z"/>
</mask>
<path d="M1.31271e-09 39.2708V35.2708H-4V39.2708H1.31271e-09ZM1.31271e-09 42.8915L4 42.8916V42.8915H1.31271e-09ZM1.81692 44.7083V40.7083H1.81646L1.81692 44.7083ZM10.9712 44.7083L14.73 46.0763L16.6837 40.7083H10.9712V44.7083ZM7.60931 53.9451L3.85053 52.577L3.83319 52.6247L3.81707 52.6727L7.60931 53.9451ZM13.2867 56.0114L17.0098 57.4737L17.0282 57.4269L17.0454 57.3797L13.2867 56.0114ZM14.3221 53.1669V49.1669H11.5214L10.5634 51.7986L14.3221 53.1669ZM43.6781 53.1669L47.437 51.799L46.4791 49.1669H43.6781V53.1669ZM44.7133 56.0114L40.9545 57.3793L40.9718 57.4269L40.9903 57.474L44.7133 56.0114ZM50.3907 53.9451L54.1824 52.6713L54.1665 52.624L54.1494 52.577L50.3907 53.9451ZM47.0288 44.7084L50.7876 43.3403L49.8297 40.7085L47.0289 40.7084L47.0288 44.7084ZM40.5992 44.7083L40.5993 40.7083L34.8865 40.7081L36.8404 46.0764L40.5992 44.7083ZM42.3585 49.5419V53.5419H48.0712L46.1173 48.1738L42.3585 49.5419ZM15.6412 49.5419L11.8825 48.1738L9.9286 53.5419H15.6412V49.5419ZM17.4006 44.7083V40.7083H14.5998L13.6418 43.3401L17.4006 44.7083ZM56.1832 44.7083L56.1835 40.7083H56.1832V44.7083ZM58 42.8915H54V42.8917L58 42.8915ZM58 39.2708H62V35.2708H58V39.2708ZM-4 39.2708V42.8915H4V39.2708H-4ZM-4 42.8913C-4.00003 43.6552 -3.84958 44.4117 -3.55723 45.1175L3.83381 42.056C3.94354 42.321 4.00001 42.6049 4 42.8916L-4 42.8913ZM-3.55723 45.1175C-3.26487 45.8233 -2.83636 46.4646 -2.29617 47.0047L3.36047 41.3477C3.56322 41.5504 3.72407 41.7911 3.83381 42.056L-3.55723 45.1175ZM-2.29617 47.0047C-1.75599 47.5449 -1.11468 47.9733 -0.408839 48.2657L2.65207 40.8744C2.91702 40.9841 3.15773 41.1449 3.36047 41.3477L-2.29617 47.0047ZM-0.408839 48.2657C0.296987 48.558 1.05346 48.7083 1.81738 48.7083L1.81646 40.7083C2.10318 40.7082 2.38713 40.7647 2.65207 40.8744L-0.408839 48.2657ZM1.81692 48.7083H10.9712V40.7083H1.81692V48.7083ZM7.21239 43.3402L3.85053 52.577L11.3681 55.3132L14.73 46.0763L7.21239 43.3402ZM3.81707 52.6727C0.899672 61.3679 13.647 66.036 17.0098 57.4737L9.56351 54.5492C9.56251 54.5517 9.5992 54.4617 9.71508 54.3434C9.83126 54.2248 9.98002 54.1262 10.1419 54.0625C10.4501 53.9412 10.6808 53.9858 10.7943 54.0272C10.9079 54.0685 11.1132 54.1826 11.2712 54.4734C11.3543 54.6262 11.4049 54.7972 11.4177 54.9626C11.4304 55.1276 11.4007 55.2201 11.4015 55.2175L3.81707 52.6727ZM17.0454 57.3797L18.0808 54.5351L10.5634 51.7986L9.52794 54.6432L17.0454 57.3797ZM14.3221 57.1669H43.6781V49.1669H14.3221V57.1669ZM39.9193 54.5348L40.9545 57.3793L48.4722 54.6436L47.437 51.799L39.9193 54.5348ZM40.9903 57.474C44.3453 66.0144 57.111 61.389 54.1824 52.6713L46.5989 55.2189C46.5997 55.2213 46.5699 55.1285 46.5826 54.9632C46.5954 54.7975 46.646 54.6263 46.7291 54.4734C46.8872 54.1825 47.0925 54.0684 47.2059 54.0272C47.3193 53.9859 47.5499 53.9412 47.858 54.0624C48.0199 54.1261 48.1686 54.2246 48.2848 54.3432C48.4007 54.4615 48.4374 54.5515 48.4363 54.5489L40.9903 57.474ZM54.1494 52.577L50.7876 43.3403L43.27 46.0765L46.6319 55.3132L54.1494 52.577ZM47.0289 40.7084L40.5993 40.7083L40.5991 48.7083L47.0287 48.7084L47.0289 40.7084ZM36.8404 46.0764L38.5998 50.91L46.1173 48.1738L44.3579 43.3401L36.8404 46.0764ZM42.3585 45.5419H15.6412V53.5419H42.3585V45.5419ZM19.4 50.91L21.1593 46.0764L13.6418 43.3401L11.8825 48.1738L19.4 50.91ZM17.4006 48.7083H56.1832V40.7083H17.4006V48.7083ZM56.183 48.7083C56.9469 48.7083 57.7033 48.5579 58.4091 48.2656L55.3479 40.8744C55.6128 40.7647 55.8967 40.7082 56.1835 40.7083L56.183 48.7083ZM58.4091 48.2656C59.1149 47.9732 59.7562 47.5448 60.2964 47.0046L54.6395 41.3477C54.8423 41.145 55.083 40.9841 55.3479 40.8744L58.4091 48.2656ZM60.2964 47.0046C60.8366 46.4644 61.265 45.8231 61.5573 45.1173L54.1662 42.0561C54.2759 41.7912 54.4367 41.5505 54.6395 41.3477L60.2964 47.0046ZM61.5573 45.1173C61.8496 44.4116 62.0001 43.6551 62 42.8912L54 42.8917C54 42.605 54.0564 42.3211 54.1662 42.0561L61.5573 45.1173ZM62 42.8915V39.2708H54V42.8915H62ZM58 35.2708H1.31271e-09V43.2708H58V35.2708Z" fill="white" mask="url(#path-1-inside-1_25_445)"/>
<path d="M25.792 27.7971V27.797C25.792 26.7845 26.1943 25.8135 26.9103 25.0975C27.6262 24.3816 28.5973 23.9794 29.6098 23.9795L25.792 27.7971ZM25.792 27.7971V33.6458H5.625V2H52.375V33.6458H51.542V27.7971V27.797M25.792 27.7971L51.542 27.797M51.542 27.797C51.5419 26.7845 51.1396 25.8135 50.4237 25.0976C49.7077 24.3816 48.7367 23.9794 47.7242 23.9795C47.7241 23.9795 47.7241 23.9795 47.7241 23.9795M51.542 27.797L47.7241 23.9795M47.7241 23.9795H29.6098H47.7241Z" stroke="white" stroke-width="4"/>
<path d="M33.4166 33.6459V31.6042H43.9166V33.6459H33.4166Z" stroke="white" stroke-width="4"/>
</svg>
