<svg width="43" height="57" viewBox="0 0 43 57" fill="none" xmlns="http://www.w3.org/2000/svg">
<path d="M40.208 37.4731C41.8324 36.8898 43 35.315 43 33.4673C43 31.1257 41.1246 29.2203 38.8194 29.2203H36.965V25.1092H37.8756C38.5962 25.1092 39.1801 24.516 39.1801 23.784V6.20693C39.1799 2.78444 36.6058 0 33.4414 0H14.6097C11.4455 0 8.87087 2.78444 8.87087 6.20693V17.9223H1.30444C0.583866 17.9223 0 18.5155 0 19.2476V23.7841C0 24.4399 0.469076 24.9831 1.08494 25.0894C1.08494 33.7071 4.74311 34.6927 5.25775 34.7855C5.66091 36.0376 6.62341 37.034 7.84315 37.4718L6.0465 55.5412C5.97415 56.2693 6.49662 56.9196 7.21337 56.9931C7.25789 56.9975 7.30207 57 7.34624 57C8.00768 57 8.57468 56.4906 8.64216 55.8076L9.00862 52.1204H39.0416L39.4081 55.8076C39.4761 56.4906 40.0429 57 40.7044 57C40.7482 57 40.7927 56.9975 40.8372 56.9931C41.554 56.9196 42.0765 56.2693 42.0037 55.5412L40.208 37.4731ZM11.4797 6.20693C11.4797 4.24592 12.8837 2.6505 14.6097 2.6505H33.4414C35.1671 2.6505 36.571 4.24592 36.571 6.20693V22.4589H18.2002V19.2476C18.2002 18.5155 17.6163 17.9223 16.8958 17.9223H11.4796V6.20693H11.4797ZM34.3559 25.1094V29.2205H13.6949V25.1094H34.3559ZM2.60887 22.4589V20.5728H15.5915V22.4589H2.60887ZM5.30541 32.0076C5.24871 31.9714 3.62599 30.8452 3.65782 25.1094H11.086V29.2205H9.2309C7.4306 29.2203 5.8924 30.3826 5.30541 32.0076ZM7.65948 33.4673C7.65948 32.587 8.36475 31.8708 9.2309 31.8708H38.8192C39.686 31.8708 40.3909 32.587 40.3909 33.4673C40.3909 34.348 39.686 35.0641 38.8192 35.0641H9.2309C8.36475 35.0641 7.65948 34.3481 7.65948 33.4673ZM9.27229 49.4698L10.4412 37.7148H37.6095L38.7785 49.4698H9.27229Z" fill="white"/>
<path d="M40.208 37.4731C41.8324 36.8898 43 35.315 43 33.4673C43 31.1257 41.1246 29.2203 38.8194 29.2203H36.965V25.1092H37.8756C38.5962 25.1092 39.1801 24.516 39.1801 23.784V6.20693C39.1799 2.78444 36.6058 0 33.4414 0H14.6097C11.4455 0 8.87087 2.78444 8.87087 6.20693V17.9223H1.30444C0.583866 17.9223 0 18.5155 0 19.2476V23.7841C0 24.4399 0.469076 24.9831 1.08494 25.0894C1.08494 33.7071 4.74311 34.6927 5.25775 34.7855C5.66091 36.0376 6.62341 37.034 7.84315 37.4718L6.0465 55.5412C5.97415 56.2693 6.49662 56.9196 7.21337 56.9931C7.25789 56.9975 7.30207 57 7.34624 57C8.00768 57 8.57468 56.4906 8.64216 55.8076L9.00862 52.1204H39.0416L39.4081 55.8076C39.4761 56.4906 40.0429 57 40.7044 57C40.7482 57 40.7927 56.9975 40.8372 56.9931C41.554 56.9196 42.0765 56.2693 42.0037 55.5412L40.208 37.4731ZM11.4797 6.20693C11.4797 4.24592 12.8837 2.6505 14.6097 2.6505H33.4414C35.1671 2.6505 36.571 4.24592 36.571 6.20693V22.4589H18.2002V19.2476C18.2002 18.5155 17.6163 17.9223 16.8958 17.9223H11.4796V6.20693H11.4797ZM34.3559 25.1094V29.2205H13.6949V25.1094H34.3559ZM2.60887 22.4589V20.5728H15.5915V22.4589H2.60887ZM5.30541 32.0076C5.24871 31.9714 3.62599 30.8452 3.65782 25.1094H11.086V29.2205H9.2309C7.4306 29.2203 5.8924 30.3826 5.30541 32.0076ZM7.65948 33.4673C7.65948 32.587 8.36475 31.8708 9.2309 31.8708H38.8192C39.686 31.8708 40.3909 32.587 40.3909 33.4673C40.3909 34.348 39.686 35.0641 38.8192 35.0641H9.2309C8.36475 35.0641 7.65948 34.3481 7.65948 33.4673ZM9.27229 49.4698L10.4412 37.7148H37.6095L38.7785 49.4698H9.27229Z" stroke="white"/>
</svg>
