<svg width="227" height="67" viewBox="0 0 227 67" fill="none" xmlns="http://www.w3.org/2000/svg">
<path d="M118.105 53.55C115.098 53.55 112.22 53.1283 109.47 52.285C106.72 51.405 104.538 50.2867 102.925 48.93L105.4 43.375C106.94 44.585 108.847 45.5933 111.12 46.4C113.393 47.2067 115.722 47.61 118.105 47.61C120.122 47.61 121.753 47.39 123 46.95C124.247 46.51 125.163 45.9233 125.75 45.19C126.337 44.42 126.63 43.5583 126.63 42.605C126.63 41.4317 126.208 40.4967 125.365 39.8C124.522 39.0667 123.422 38.4983 122.065 38.095C120.745 37.655 119.26 37.2517 117.61 36.885C115.997 36.5183 114.365 36.0967 112.715 35.62C111.102 35.1067 109.617 34.465 108.26 33.695C106.94 32.8883 105.858 31.825 105.015 30.505C104.172 29.185 103.75 27.4983 103.75 25.445C103.75 23.355 104.3 21.4483 105.4 19.725C106.537 17.965 108.242 16.5717 110.515 15.545C112.825 14.4817 115.74 13.95 119.26 13.95C121.57 13.95 123.862 14.2433 126.135 14.83C128.408 15.4167 130.388 16.26 132.075 17.36L129.82 22.915C128.097 21.8883 126.318 21.1367 124.485 20.66C122.652 20.1467 120.892 19.89 119.205 19.89C117.225 19.89 115.612 20.1283 114.365 20.605C113.155 21.0817 112.257 21.705 111.67 22.475C111.12 23.245 110.845 24.125 110.845 25.115C110.845 26.2883 111.248 27.2417 112.055 27.975C112.898 28.6717 113.98 29.2217 115.3 29.625C116.657 30.0283 118.16 30.4317 119.81 30.835C121.46 31.2017 123.092 31.6233 124.705 32.1C126.355 32.5767 127.84 33.2 129.16 33.97C130.517 34.74 131.598 35.785 132.405 37.105C133.248 38.425 133.67 40.0933 133.67 42.11C133.67 44.1633 133.102 46.07 131.965 47.83C130.865 49.5533 129.16 50.9467 126.85 52.01C124.54 53.0367 121.625 53.55 118.105 53.55ZM142.41 53V14.5H148.295L165.125 42.605H162.045L178.6 14.5H184.485L184.54 53H177.775L177.72 25.115H179.15L165.07 48.6H161.88L147.58 25.115H149.23V53H142.41ZM208.524 53.55C205.517 53.55 202.639 53.1283 199.889 52.285C197.139 51.405 194.957 50.2867 193.344 48.93L195.819 43.375C197.359 44.585 199.266 45.5933 201.539 46.4C203.812 47.2067 206.141 47.61 208.524 47.61C210.541 47.61 212.172 47.39 213.419 46.95C214.666 46.51 215.582 45.9233 216.169 45.19C216.756 44.42 217.049 43.5583 217.049 42.605C217.049 41.4317 216.627 40.4967 215.784 39.8C214.941 39.0667 213.841 38.4983 212.484 38.095C211.164 37.655 209.679 37.2517 208.029 36.885C206.416 36.5183 204.784 36.0967 203.134 35.62C201.521 35.1067 200.036 34.465 198.679 33.695C197.359 32.8883 196.277 31.825 195.434 30.505C194.591 29.185 194.169 27.4983 194.169 25.445C194.169 23.355 194.719 21.4483 195.819 19.725C196.956 17.965 198.661 16.5717 200.934 15.545C203.244 14.4817 206.159 13.95 209.679 13.95C211.989 13.95 214.281 14.2433 216.554 14.83C218.827 15.4167 220.807 16.26 222.494 17.36L220.239 22.915C218.516 21.8883 216.737 21.1367 214.904 20.66C213.071 20.1467 211.311 19.89 209.624 19.89C207.644 19.89 206.031 20.1283 204.784 20.605C203.574 21.0817 202.676 21.705 202.089 22.475C201.539 23.245 201.264 24.125 201.264 25.115C201.264 26.2883 201.667 27.2417 202.474 27.975C203.317 28.6717 204.399 29.2217 205.719 29.625C207.076 30.0283 208.579 30.4317 210.229 30.835C211.879 31.2017 213.511 31.6233 215.124 32.1C216.774 32.5767 218.259 33.2 219.579 33.97C220.936 34.74 222.017 35.785 222.824 37.105C223.667 38.425 224.089 40.0933 224.089 42.11C224.089 44.1633 223.521 46.07 222.384 47.83C221.284 49.5533 219.579 50.9467 217.269 52.01C214.959 53.0367 212.044 53.55 208.524 53.55Z" fill="white"/>
<path d="M40 1L0 23L40 45L72.7273 26.9967V52.3333H80V23L40 1ZM14.5455 38.3267V52.9933L40 67L65.4545 52.9933V38.3267L40 52.3333L14.5455 38.3267Z" fill="white"/>
</svg>
