<svg width="60" height="60" viewBox="0 0 60 60" fill="red" xmlns="http://www.w3.org/2000/svg">
<path d="M39.9527 24.1878C39.4853 23.0558 38.3805 22.2505 37.077 22.2505H33.1768C31.8408 22.2505 30.6978 23.0934 30.2517 24.2752C29.8056 23.0934 28.6627 22.2505 27.3266 22.2505H23.4263C22.1226 22.2505 21.0179 23.0558 20.5504 24.1878L18.2811 22.4855C18.2811 22.4855 18.2811 22.4855 18.2811 22.4855C17.7626 22.0963 17.025 22.2022 16.636 22.7204L39.9527 24.1878ZM39.9527 24.1878L42.2217 22.4857C42.7415 22.0943 43.4782 22.2014 43.8671 22.7204C44.2572 23.2399 44.1514 23.9767 43.632 24.3657L40.1343 26.9878C39.8264 28.9439 38.1452 30.4508 36.1018 30.4508H34.1516C32.3321 30.4508 30.7861 29.2604 30.2515 27.6171C29.7169 29.2603 28.171 30.4508 26.3514 30.4508H24.4013C22.3568 30.4508 20.6767 28.9438 20.3688 26.9878M39.9527 24.1878L20.3688 26.9878M20.3688 26.9878L16.8711 24.3657C16.8711 24.3657 16.8711 24.3657 16.871 24.3656C16.3517 23.9766 16.2459 23.2399 16.636 22.7205L20.3688 26.9878ZM28.1013 26.3507V26.3791C28.086 27.331 27.306 28.1008 26.3514 28.1008H24.4013C23.4371 28.1008 22.6511 27.3157 22.6511 26.3507V25.3757C22.6511 24.9487 22.9985 24.6007 23.4261 24.6007H27.3263C27.7539 24.6007 28.1013 24.9487 28.1013 25.3757V26.3507ZM32.4016 26.3507V25.3757C32.4016 24.9487 32.749 24.6007 33.1766 24.6007H37.0767C37.5043 24.6007 37.8517 24.9487 37.8517 25.3757V26.3507C37.8517 27.3156 37.0657 28.1008 36.1016 28.1008H34.1515C33.1876 28.1007 32.4016 27.3156 32.4016 26.3507Z" fill="white" stroke="white" stroke-width="0.4"/>
<path d="M58.6692 54.2628L58.671 54.2701L59.6675 58.2414L59.6675 58.2416C59.8249 58.8712 59.4421 59.5089 58.8128 59.6666C58.7159 59.6916 58.6193 59.702 58.5266 59.702C58.0001 59.702 57.5218 59.3461 57.3878 58.8126L57.3877 58.8124L56.4147 54.9202C56.2779 54.5192 55.9071 54.0143 55.1989 53.4781C54.4893 52.9408 53.4534 52.3817 52.0133 51.8726C49.1582 50.8634 44.7329 50.0571 38.1614 49.9951C37.9559 51.378 37.3781 53.0302 36.1908 54.3598C34.9471 55.7526 33.0471 56.7769 30.2515 56.7769C27.454 56.7769 25.5534 55.7462 24.31 54.3453C23.1228 53.0078 22.5458 51.346 22.3413 49.956C16.7305 50.0062 12.4323 50.4511 9.39638 51.295C6.32338 52.1492 4.60309 53.3949 4.06697 54.991L3.11524 58.8122L3.11518 58.8125C2.95796 59.4405 2.31924 59.8269 1.69009 59.6666C1.06129 59.5088 0.677097 58.8715 0.83568 58.2414L0.835641 58.2415L1.02967 58.29L0.835727 58.2412L58.6692 54.2628ZM58.6692 54.2628L58.6668 54.2556M58.6692 54.2628L58.6668 54.2556M58.6668 54.2556C58.1256 52.6291 55.0623 47.817 38.2519 47.6491M58.6668 54.2556L38.2519 47.6491M38.2519 47.6491V46.8266C38.2519 46.1781 37.7267 45.6516 37.0769 45.6516C36.4271 45.6516 35.9019 46.1781 35.9019 46.8266V48.7767C35.9019 48.7833 35.9022 48.7895 35.9027 48.7953C35.9023 48.8007 35.902 48.8065 35.9019 48.8125C35.9001 49.0983 35.8508 50.5118 35.1189 51.8473C34.7545 52.5121 34.2226 53.1547 33.4445 53.6318C32.6669 54.1086 31.6324 54.427 30.2517 54.427C28.8713 54.427 27.8369 54.1065 27.0594 53.6265C26.2814 53.1462 25.7493 52.4992 25.3848 51.8297C24.6531 50.4858 24.6034 49.0637 24.6015 48.7761V46.8267C24.6015 46.1782 24.0763 45.6517 23.4265 45.6517C22.7767 45.6517 22.2515 46.1782 22.2515 46.8267V47.6132L38.2519 47.6491ZM35.9127 48.8451C35.913 48.8462 35.9127 48.8451 35.9123 48.8438L35.9127 48.8451ZM35.9148 48.7394C35.9151 48.7385 35.9153 48.738 35.9148 48.7393L35.9148 48.7394Z" fill="white" stroke="white" stroke-width="0.4"/>
<path d="M30.0998 8.99032L30.0998 8.9903L7.67393 6.06518L7.67392 6.06518L7.69978 5.86686L30.0998 8.99032ZM30.0998 8.99032L30.1024 8.99062M30.0998 8.99032L30.1024 8.99062M30.1024 8.99062C30.1507 8.99628 30.2005 8.99975 30.2515 8.99975C30.3028 8.99975 30.3525 8.99612 30.4001 8.99071L30.4032 8.9903M30.1024 8.99062L30.4032 8.9903M30.4032 8.9903L51.5023 6.23804V9.32003C51.1893 9.6778 50.7214 10.2663 50.3227 10.9931C49.9026 11.7587 49.5522 12.6906 49.5522 13.6751C49.5522 14.8099 50.018 15.5987 50.6496 16.0992C51.274 16.594 52.0507 16.8002 52.6773 16.8002C53.3039 16.8002 54.0807 16.594 54.7051 16.0992C55.3366 15.5987 55.8024 14.8099 55.8024 13.6751C55.8024 12.6906 55.4521 11.7587 55.032 10.9931C54.6333 10.2663 54.1654 9.6778 53.8523 9.32002V4.89963C53.8523 4.7422 53.8188 4.59483 53.7646 4.46085L53.764 4.45939M30.4032 8.9903L53.764 4.45939M53.764 4.45939C53.7476 4.41995 53.727 4.38849 53.7134 4.36841C53.7078 4.36018 53.7035 4.35404 53.7002 4.34914C53.6934 4.33933 53.69 4.33449 53.6861 4.32775L53.6858 4.32705C53.6494 4.2619 53.6011 4.17514 53.5308 4.0995L53.5295 4.09819M53.764 4.45939L53.5295 4.09819M53.5295 4.09819C53.4888 4.05517 53.4324 4.01566 53.4043 3.99593M53.5295 4.09819L53.4043 3.99593M53.4043 3.99593C53.3995 3.9926 53.3955 3.98983 53.3926 3.9877M53.4043 3.99593L53.3926 3.9877M53.3926 3.9877C53.3382 3.94371 53.2686 3.88855 53.183 3.84705L53.0958 4.02701C53.0596 4.0093 53.0218 3.99943 52.9832 3.98934C52.9708 3.98609 52.9582 3.98282 52.9456 3.97925M53.3926 3.9877L53.1838 3.84744C53.127 3.81956 53.0599 3.80233 53.0212 3.79237C53.0137 3.79045 53.0073 3.78881 53.0022 3.7874M52.9456 3.97925L53.0042 3.78801C53.0035 3.78781 53.0029 3.78761 53.0022 3.7874M52.9456 3.97925L53.0001 3.78682C53.0008 3.78701 53.0015 3.7872 53.0022 3.7874M52.9456 3.97925L53.0022 3.7874M53.4524 13.675C53.4524 14.0138 53.3407 14.1902 53.2107 14.2903C53.0719 14.3972 52.8796 14.4424 52.6774 14.4499C52.4753 14.4424 52.2829 14.3972 52.1442 14.2903C52.0142 14.1902 51.9024 14.0137 51.9024 13.675C51.9024 13.0184 52.2651 12.2706 52.6774 11.6489C53.0898 12.2707 53.4524 13.0185 53.4524 13.675ZM16.9096 4.89964L30.2515 3.15909L43.5933 4.89964L30.2515 6.64028L16.9096 4.89964Z" fill="white" stroke="white" stroke-width="0.4"/>
<path d="M34.0153 36.2647L34.0157 36.2651C34.4595 36.7243 34.4627 37.4516 34.0075 37.9067C33.8562 38.0582 32.611 39.2261 30.2516 39.2261C27.8921 39.2261 26.6468 38.0578 26.4958 37.9068L34.0153 36.2647ZM34.0153 36.2647C33.5672 35.8038 32.831 35.7917 32.3633 36.229M34.0153 36.2647L32.3633 36.229M32.3633 36.229C32.3253 36.2635 31.6355 36.876 30.2516 36.876C28.8789 36.876 28.1898 36.2735 28.1436 36.2316C27.6855 35.7856 26.9505 35.7905 26.4957 36.2452C26.0364 36.7046 26.0363 37.4474 26.4957 37.9067L32.3633 36.229Z" fill="white" stroke="white" stroke-width="0.4"/>
<path d="M12.5008 27.3256C12.5008 28.7412 13.4462 29.9394 14.7392 30.3225C15.2854 31.93 16.6883 35.9779 17.5004 37.6012C19.064 40.7293 23.5083 46.0513 30.2515 46.0513C36.9947 46.0513 41.439 40.7295 43.0025 37.6013C43.8147 35.9779 45.2176 31.9299 45.7638 30.3225C47.0568 29.9394 48.0022 28.7412 48.0022 27.3256V23.4255C48.0022 22.1169 47.1943 20.9946 46.0521 20.5293V19.5254C46.0521 18.8769 45.5269 18.3504 44.8771 18.3504C44.2273 18.3504 43.7021 18.8769 43.7021 19.5254V21.4755C43.7021 22.124 44.2273 22.6505 44.8771 22.6505C45.3047 22.6505 45.6521 22.9986 45.6521 23.4255V27.3256C45.6521 27.7526 45.3047 28.1006 44.8771 28.1006C44.3712 28.1006 43.922 28.4235 43.763 28.9043C43.76 28.9129 43.7527 28.9348 43.7412 28.9687C43.696 29.1028 43.5873 29.4252 43.4371 29.8634C43.2399 30.4391 42.9692 31.2205 42.67 32.0583C42.07 33.7388 41.3611 35.6302 40.9015 36.5506C40.8303 36.6918 39.9137 38.4843 38.1378 40.2397C36.3612 41.9956 33.739 43.7013 30.2515 43.7013C26.764 43.7013 24.1418 41.9956 22.3652 40.2397C20.5893 38.4843 19.6726 36.6918 19.6016 36.5506C19.1415 35.6304 18.4326 33.739 17.8327 32.0584C17.5336 31.2206 17.2629 30.4392 17.0657 29.8635C16.9148 29.4229 16.8058 29.0993 16.7611 28.9666C16.7497 28.9328 16.7424 28.9113 16.7398 28.9035C16.5797 28.4236 16.1321 28.1006 15.6259 28.1006C15.1983 28.1006 14.8509 27.7526 14.8509 27.3256V23.4255C14.8509 22.9986 15.1983 22.6505 15.6259 22.6505C16.2757 22.6505 16.8009 22.124 16.8009 21.4755V19.5253C16.8009 18.8768 16.2757 18.3503 15.6259 18.3503C14.9761 18.3503 14.4509 18.8768 14.4509 19.5253V20.5293C13.3087 20.9946 12.5008 22.1168 12.5008 23.4255V27.3256Z" fill="white" stroke="white" stroke-width="0.4"/>
<path d="M15.1006 16.6764L15.1013 16.6767C15.3643 16.8072 21.3064 19.7251 30.2516 19.7251C39.1967 19.7251 45.1388 16.8072 45.4018 16.6767L45.4026 16.6763C45.8006 16.4767 46.0522 16.0703 46.0522 15.6249V8.79982C46.0522 8.15133 45.527 7.62482 44.8772 7.62482C44.2274 7.62482 43.7022 8.15133 43.7022 8.79982V14.8613C41.9803 15.5772 36.9839 17.3752 30.2516 17.3752C23.5192 17.3752 18.5228 15.5772 16.801 14.8613V8.79982C16.801 8.15123 16.2758 7.62471 15.626 7.62471C14.9762 7.62471 14.451 8.15121 14.451 8.79971V15.6249C14.451 16.0703 14.7025 16.4768 15.1006 16.6764Z" fill="white" stroke="white" stroke-width="0.4"/>
</svg>
