<svg width="59" height="45" viewBox="0 0 59 45" fill="none" xmlns="http://www.w3.org/2000/svg">
<path d="M16.0391 19.1629C12.6974 19.1629 9.97876 16.4149 9.97876 13.037C9.97876 9.65918 12.6976 6.91113 16.0391 6.91113C19.3808 6.91113 22.0994 9.65934 22.0994 13.037C22.0994 16.4149 19.3808 19.1629 16.0391 19.1629ZM16.0391 9.35716C14.0318 9.35716 12.3988 11.0078 12.3988 13.0369C12.3988 15.0659 14.0318 16.7166 16.0391 16.7166C18.0464 16.7166 19.6794 15.0659 19.6794 13.0369C19.6794 11.0078 18.0464 9.35716 16.0391 9.35716Z" fill="white"/>
<path d="M57.79 36.2884H56.2083V1.22309C56.2083 0.547456 55.6665 0 54.9983 0H4.00156C3.33331 0 2.79155 0.547456 2.79155 1.22309V36.2884H1.21C0.541597 36.2884 0 36.836 0 37.5114V41.0017C0 41.6773 0.541597 42.2248 1.21 42.2248H7.23145V43.5287C7.23145 44.2044 7.77305 44.7518 8.44146 44.7518H23.2527C23.9211 44.7518 24.4627 44.2044 24.4627 43.5287V42.2248H57.79C58.4584 42.2248 59 41.6773 59 41.0017V37.5114C59 36.8358 58.4584 36.2884 57.79 36.2884ZM7.23145 39.7786H2.42V38.7345H7.23145V39.7786ZM7.23145 23.3413V36.2884H5.21156V2.44619H53.7884V36.2884H24.4627V30.0057L29.1405 34.182C29.546 34.5023 29.8975 34.4907 29.9654 34.4883C30.2938 34.4824 30.6056 34.342 30.8292 34.099L40.4925 23.6029C41.0457 23.0082 41.3304 22.2342 41.2946 21.4235C41.2652 20.7601 41.0199 20.1403 40.6002 19.6349L47.6928 11.9415C48.1482 11.4473 48.1213 10.6734 47.6324 10.2127C47.1436 9.75229 46.3779 9.77985 45.9221 10.2737L38.8373 17.9588C38.3356 17.585 37.7262 17.3837 37.0872 17.3981C36.2867 17.4113 35.5121 17.7585 34.965 18.3474L29.6452 24.1099C29.6452 24.1099 25.5744 20.2585 25.5281 20.2259C24.8405 19.6801 23.9851 19.3805 23.1088 19.3805H11.1494C8.98918 19.3806 7.23145 21.1574 7.23145 23.3413ZM38.6562 21.1112C38.6642 21.1189 38.6725 21.1264 38.6805 21.1339C38.8344 21.2724 38.8724 21.4271 38.877 21.5326C38.8835 21.6779 38.831 21.818 38.7231 21.934L37.7796 22.9637L35.7641 21.0538L36.7263 20.0251C36.8697 19.8709 37.039 19.8453 37.1269 19.844C37.2001 19.8443 37.3432 19.8573 37.4539 19.969C37.4625 19.9775 37.471 19.986 37.4799 19.9941L38.6562 21.1112ZM24.0537 26.3767C23.6972 26.0581 23.189 25.9809 22.7553 26.1784C22.3216 26.3762 22.0427 26.8125 22.0427 27.2934V42.3056H9.65146V23.3413C9.65146 22.5062 10.3234 21.8268 11.1494 21.8268H23.1089C23.5536 21.8268 23.872 22.0145 24.061 22.1719C24.0614 22.1724 24.0619 22.1727 24.0624 22.1732L28.8781 26.736C29.113 26.9588 29.4259 27.0793 29.7481 27.0659C30.07 27.0547 30.3741 26.9138 30.5929 26.6752L34.1101 22.8396L36.1327 24.7561L29.8607 31.5613L24.0537 26.3767ZM56.58 39.7786H24.4627V38.7345H56.58V39.7786Z" fill="white"/>
</svg>
